<svg width="214" height="214" viewBox="0 0 214 214" fill="none" xmlns="http://www.w3.org/2000/svg">
<path fill-rule="evenodd" clip-rule="evenodd" d="M107 214C166.094 214 214 166.094 214 107C214 47.9055 166.094 0 107 0C47.9055 0 0 47.9055 0 107C0 166.094 47.9055 214 107 214ZM107 186.034C150.649 186.034 186.034 150.649 186.034 107C186.034 63.3507 150.649 27.9659 107 27.9659C63.3507 27.9659 27.9659 63.3507 27.9659 107C27.9659 150.649 63.3507 186.034 107 186.034Z" fill="#2B2B2B"/>
<path fill-rule="evenodd" clip-rule="evenodd" d="M63.4987 41.0044C75.976 32.7634 90.9277 27.9659 107 27.9659C125.883 27.9659 143.219 34.5879 156.812 45.6363L176.665 25.7834C157.946 9.71159 133.607 0 107 0C83.1906 0 61.1977 7.7765 43.4224 20.9281L63.4987 41.0044Z" fill="#57CC7F"/>
</svg>
